name motion_L1L2.mot
datacolumns 11
datarows 21
range 0.00000000 0.50000000
endheader
                time	         pelvis_tilt	           pelvis_tx	           pelvis_ty	       ankle_angle_r	        knee_angle_r	       hip_flexion_r	       hip_flexion_l	        knee_angle_l	       ankle_ankle_l	    lumbar_extension	
          0.00000000	          0.00000000	          0.00000000	         -0.94278164	          0.00000000	          0.00000000	          0.00000000	          0.00000000	          0.00000000	          0.00000000	          0.00000000	
          0.01127017	          0.00602040	         -0.00001381	         -0.94278396	          0.02039288	         -0.00493501	          0.00420846	         -0.01000433	          0.02651033	          0.00494644	         -0.00924565	
          0.05000000	          0.07708307	          0.00006737	         -0.94280502	          0.25895793	         -0.22985063	          0.16524606	         -0.13614215	          0.40859758	          0.05101494	         -0.18960589	
          0.08872983	          0.11233129	          0.00128037	         -0.94278506	          0.36698775	         -1.14179735	          0.77992717	         -0.23736891	          0.93029277	          0.01471252	         -0.62113001	
          0.10000000	          0.09447539	          0.00202111	         -0.94276004	          0.30035715	         -1.60475308	          1.08656462	         -0.23076587	          1.04987506	         -0.03525498	         -0.79781825	
          0.11127017	          0.05856550	          0.00298282	         -0.94272247	          0.17036885	         -2.17378053	          1.46145648	         -0.19945988	          1.13911835	         -0.10912226	         -0.99836429	
          0.15000000	         -0.15712360	          0.00775820	         -0.94244833	         -0.65188698	         -4.77418694	          3.17593822	          0.07145056	          1.25533847	         -0.50309551	         -1.84771206	
          0.18872983	         -0.39222433	          0.01418865	         -0.94183363	         -1.75087423	         -7.93248895	          5.29511126	          0.51674056	          1.20884306	         -0.99733534	         -2.88947273	
          0.20000000	         -0.44107532	          0.01625373	         -0.94156902	         -2.06535013	         -8.87344679	          5.93979732	          0.66429960	          1.18960933	         -1.13804701	         -3.21829403	
          0.21127017	         -0.47510663	          0.01836781	         -0.94126175	         -2.36083906	         -9.79934015	          6.58323871	          0.81544550	          1.17461491	         -1.27122221	         -3.55538209	
          0.25000000	         -0.51610027	          0.02558069	         -0.94003755	         -3.18971671	        -12.73434418	          8.75123422	          1.33309226	          1.14454226	         -1.67173795	         -4.74826092	
          0.28872983	         -0.54339543	          0.03172433	         -0.93895213	         -3.65711340	        -15.00556938	         10.79495139	          1.78405392	          1.10746965	         -1.99633312	         -5.92968589	
          0.30000000	         -0.56829443	          0.03312558	         -0.93873738	         -3.71161501	        -15.48894351	         11.35554054	          1.89074309	          1.08780859	         -2.07889460	         -6.25913805	
          0.31127017	         -0.60591224	          0.03430029	         -0.93858804	         -3.72570704	        -15.87836582	         11.89711351	          1.98329532	          1.06160104	         -2.15625982	         -6.57851683	
          0.35000000	         -0.80288166	          0.03658399	         -0.93848699	         -3.47679416	        -16.56605318	         13.56667422	          2.21508172	          0.88913232	         -2.34514445	         -7.58407874	
          0.38872983	         -1.02190285	          0.03618690	         -0.93877026	         -2.80102309	        -16.43656565	         14.83018559	          2.37281261	          0.51276887	         -2.32116569	         -8.41618093	
          0.40000000	         -1.07422184	          0.03557441	         -0.93887714	         -2.53054299	        -16.28120471	         15.10105901	          2.41599450	          0.35063150	         -2.25662200	         -8.61991989	
          0.41127017	         -1.11715297	          0.03474160	         -0.93898058	         -2.22883306	        -16.08312634	         15.32293352	          2.46137578	          0.16020601	         -2.16073561	         -8.80470030	
          0.45000000	         -1.20142891	          0.03033840	         -0.93922750	         -0.97503125	        -15.10045866	         15.74074962	          2.65612353	         -0.75211277	         -1.55673004	         -9.29357509	
          0.48872983	         -1.21662152	          0.02388577	         -0.93912839	          0.56623447	        -13.68912464	         15.70701678	          2.95936604	         -2.16075398	         -0.44908406	         -9.55526040	
          0.50000000	         -1.21349710	          0.02168668	         -0.93900115	          1.05958700	        -13.20526872	         15.62785865	          3.07707714	         -2.68206110	         -0.01743740	         -9.58858117	
